<svg xmlns="http://www.w3.org/2000/svg" id="Layer_1" viewBox="0 0 213 180"><style>.st0{fill:#101434}.st1{fill:#333f6b}.st2{fill:#C32026}</style><path d="M162.6 81.3c0 8.8-2.1 17.4-4.8 25.3h-33.5l6.2-39.2 25.6 1.7-33.5-23.7V26.3h-16.3v7.5L81.6 16.2h-.1L5.2 69.1l23.1-1.7 8.2 39.2H4C1.4 98.6.7 90.1.7 81.3c0-44.7 36.2-81 81-81 44.7 0 80.9 36.3 80.9 81z" class="st0"/><path d="M131.2.5c-4 0-7.9.3-11.8.9 39.1 5.8 69.1 39.4 69.1 80.1 0 8.8-1.4 17.2-4 25.1h23.6c2.6-7.9 4-16.3 4-25.1 0-44.7-36.2-81-80.9-81z" class="st0"/><path d="M90.5 22.5l-65 45.1-20.3 1.5 76.3-52.9h.1z" class="st1"/><path d="M195.2 0l-1.5 5.6-1.5-5.6h-2.5v8.2h1.5V1.8l1.6 6.5h1.6l1.6-6.5v6.5h1.5V0h-2.3zm-13.1 0v1.4h2.4v6.8h1.7V1.4h2.4V0h-6.5z" class="st0"/><path d="M44.8 106.6h-8.3l-8.2-39.2 8.5-.6zM114.8 26.3v13.5l-8.5-6v-7.5z" class="st1"/><g><path d="M21.8 116v7.7h-5.9v30.8h-10v-30.8H0V116h21.8zm2.3 0h16.7v7.7h-6.7v7.3h6.2v7.3h-6.2v8.5h7.3v7.7H24.1V116zm37.5 0l5.7 38.5H57.1l-.5-6.9H53l-.6 6.9H42.1l5.1-38.5h14.4zm-5.3 24.7c-.5-4.4-1-9.7-1.5-16.1-1 7.4-1.6 12.7-1.9 16.1h3.4zM99.9 116v38.5h-8.7v-26l-3.5 26h-6.2l-3.7-25.4v25.4h-8.7V116H82c.4 2.3.8 5 1.2 8.2l1.4 9.8 2.3-18h13zm30.3 16.7c1.5.5 2.5 1.3 3.3 2.4.7 1.1 1.1 3.7 1.1 7.8 0 3.1-.3 5.4-1 7.1-.7 1.7-1.9 3-3.6 3.8-1.7.9-3.9 1.3-6.6 1.3-3 0-5.4-.5-7.2-1.5-1.7-1-2.9-2.3-3.4-3.8-.6-1.5-.8-4.1-.8-7.7v-3h9.6v6.3c0 1.7.1 2.7.3 3.2.2.4.6.7 1.3.7.7 0 1.2-.3 1.5-.9.2-.6.4-2.1.4-4.5v-2.7c0-1.5-.2-2.6-.5-3.2-.3-.7-.8-1.1-1.5-1.3-.6-.2-1.9-.3-3.8-.4v-5.6c2.3 0 3.7-.1 4.2-.3s.9-.6 1.2-1.1c.2-.6.4-1.5.4-2.8v-2.1c0-1.3-.1-2.2-.4-2.7-.3-.4-.7-.6-1.3-.6-.7 0-1.1.2-1.4.7-.2.5-.4 1.4-.4 2.9v3.2H112v-3.3c0-3.7.8-6.2 2.5-7.4 1.7-1.3 4.3-1.9 8-1.9 4.6 0 7.7.9 9.3 2.7 1.6 1.8 2.4 4.3 2.4 7.5 0 2.2-.3 3.7-.9 4.7-.6.8-1.6 1.7-3.1 2.5zm30.5-3.7v12.8c0 2.9-.2 5-.5 6.4-.3 1.3-1 2.6-2 3.7-1 1.2-2.2 2-3.6 2.5s-3 .8-4.7.8c-2.3 0-4.2-.3-5.7-.8s-2.7-1.4-3.6-2.5c-.9-1.1-1.5-2.3-1.9-3.6-.4-1.2-.6-3.2-.6-5.9V129c0-3.5.3-6.2.9-7.9.6-1.8 1.8-3.2 3.6-4.2 1.8-1.1 4-1.6 6.6-1.6 2.1 0 4 .4 5.7 1.1s2.9 1.6 3.7 2.7 1.4 2.3 1.7 3.6c.2 1.3.4 3.4.4 6.3zm-9.6-3.2c0-2-.1-3.3-.3-3.8s-.7-.8-1.4-.8-1.2.3-1.4.8-.3 1.8-.3 3.8v18.8c0 2.2.1 3.6.3 4 .2.5.7.7 1.4.7s1.2-.3 1.4-.8.3-1.8.3-3.6v-19.1zm35.6 3.2v12.8c0 2.9-.2 5-.5 6.4-.3 1.3-1 2.6-2 3.7-1 1.2-2.2 2-3.6 2.5s-3 .8-4.7.8c-2.3 0-4.2-.3-5.7-.8s-2.7-1.4-3.6-2.5c-.9-1.1-1.5-2.3-1.9-3.6-.4-1.2-.6-3.2-.6-5.9V129c0-3.5.3-6.2.9-7.9.6-1.8 1.8-3.2 3.6-4.2 1.8-1.1 4-1.6 6.6-1.6 2.1 0 4 .4 5.7 1.1s2.9 1.6 3.7 2.7 1.4 2.3 1.7 3.6c.3 1.3.4 3.4.4 6.3zm-9.6-3.2c0-2-.1-3.3-.3-3.8s-.7-.8-1.4-.8-1.2.3-1.4.8-.3 1.8-.3 3.8v18.8c0 2.2.1 3.6.3 4 .2.5.7.7 1.4.7s1.2-.3 1.4-.8.3-1.8.3-3.6v-19.1zm35.7 3.2v12.8c0 2.9-.2 5-.5 6.4-.3 1.3-1 2.6-2 3.7-1 1.2-2.2 2-3.6 2.5s-3 .8-4.7.8c-2.3 0-4.2-.3-5.7-.8s-2.7-1.4-3.6-2.5c-.9-1.1-1.5-2.3-1.9-3.6-.4-1.2-.6-3.2-.6-5.9V129c0-3.5.3-6.2.9-7.9.6-1.8 1.8-3.2 3.6-4.2 1.8-1.1 4-1.6 6.6-1.6 2.1 0 4 .4 5.7 1.1s2.9 1.6 3.7 2.7 1.4 2.3 1.7 3.6c.3 1.3.4 3.4.4 6.3zm-9.6-3.2c0-2-.1-3.3-.3-3.8s-.7-.8-1.4-.8-1.2.3-1.4.8-.3 1.8-.3 3.8v18.8c0 2.2.1 3.6.3 4 .2.5.7.7 1.4.7s1.2-.3 1.4-.8.3-1.8.3-3.6v-19.1zM19.1 180v-17.3h7.4c1.8 0 3.2.2 4 .5s1.5.9 2 1.7.8 1.7.8 2.7c0 1.3-.4 2.4-1.1 3.2-.8.8-1.9 1.4-3.4 1.6.8.4 1.4.9 1.9 1.5.5.5 1.2 1.5 2 2.8l2.1 3.4h-4.2l-2.5-3.8c-.9-1.3-1.5-2.2-1.8-2.5-.3-.4-.7-.6-1.1-.7-.4-.1-1-.2-1.8-.2h-.7v7.2l-3.6-.1zm3.5-10h2.6c1.7 0 2.7-.1 3.1-.2.4-.1.7-.4 1-.7.2-.3.4-.8.4-1.3 0-.6-.2-1.1-.5-1.4-.3-.4-.7-.6-1.3-.7-.3 0-1.1-.1-2.6-.1h-2.7v4.4zM40 180v-17.3h12.8v2.9h-9.3v3.8h8.7v2.9h-8.7v4.7h9.7v2.9H40v.1zm35 0h-3.8l-1.5-3.9h-6.9l-1.4 3.9h-3.7l6.7-17.3h3.7L75 180zm-6.4-6.8l-2.4-6.4-2.3 6.4h4.7zm11.7 6.8v-17.2h3.5V177h8.7v2.9H80.3v.1zm20.2 0v-14.4h-5.1v-2.9h13.8v2.9H104V180h-3.5zm18.7 0v-7.3l-6.3-10h4.1l4.1 6.8 4-6.8h4l-6.4 10v7.3h-3.5zm24.7 0v-17.2h3.5V177h8.7v2.9h-12.2v.1zm20.1 0v-14.4h-5.1v-2.9h13.8v2.9h-5.1V180H164zm14.3-17.3h6.4c1.4 0 2.5.1 3.3.3 1 .3 1.9.8 2.6 1.6.7.8 1.3 1.7 1.7 2.8s.6 2.5.6 4.1c0 1.4-.2 2.7-.5 3.7-.4 1.3-1 2.3-1.9 3.1-.6.6-1.4 1.1-2.5 1.4-.8.2-1.8.4-3.1.4h-6.6v-17.4zm3.5 2.9v11.5h2.6c1 0 1.7-.1 2.1-.2.6-.1 1-.4 1.4-.7s.7-.9.9-1.7.4-1.8.4-3.2c0-1.3-.1-2.4-.4-3.1-.2-.7-.6-1.3-1-1.7s-1-.7-1.6-.8c-.5-.1-1.4-.2-2.9-.2l-1.5.1z" class="st0"/></g></svg>