<svg xmlns="http://www.w3.org/2000/svg" viewBox="125 125 150 150"><g fill-rule="evenodd"><path fill="#0d2c6c" d="M241.49 140.051c0 .497.019.508.847.508h.847v4.911h1.355v-4.911h.846c.828 0 .847-.011.847-.508v-.508h-4.742v.508m5.419 2.447v2.972h1.186l.011-1.821.012-1.82.452 1.82.452 1.821h.632c.698 0 .739-.082 1.381-2.794l.24-1.016.019 1.905.018 1.905h1.186v-5.927h-1.799l-.386 1.497c-.538 2.087-.578 2.096-1.055.239l-.425-1.652-.962-.05-.962-.051v2.972m-51.397-2.261c-25.999 2.133-47.308 21.719-51.65 47.474-.356 2.112-.726 6.243-.49 5.473.083-.272.443-.297 4.397-.297h4.306v3.387h3.217v2.541h2.54v-5.42H162.235v-5.927h5.25v3.557H171.888v-17.951h3.557v-3.726h7.62v3.387H184.248l.043 8.933.044 8.933.974.051.974.051v-6.622h2.879V160.034h2.879V152.921h1.354v6.944h5.928v23.878h4.911V195.428h2.54v-10.331h4.911V176.63h10.838v5.08H227.942v13.718h2.879v-5.25h2.71v-2.71h8.298v7.452h1.693v-2.033h1.863v-3.725H251.482V193.395h1.863v2.033h4.064l-.001-.635c-.002-2.442-.772-7.795-1.614-11.217-6.713-27.289-32.237-45.639-60.282-43.339m12.955 77.727c-3.428.51-4.572 2.098-4.572 6.346v1.939h6.399l.061-1.922c.068-2.165.207-2.481 1.091-2.481.803 0 .916.335.916 2.715 0 2.968-.149 3.175-2.413 3.336l-1.312.094v3.846l.973.01c2.522.025 2.781.463 2.715 4.601-.053 3.372-.222 3.872-1.223 3.62-.667-.167-.772-.687-.772-3.839v-2.867H203.895v2.484c0 6.192 1.508 7.936 7.036 8.14 4.81.178 7.007-1.245 7.711-4.992.242-1.285.114-6.414-.185-7.411-.214-.715-1.504-2.116-1.949-2.116-.412 0-.271-.225.479-.764 2.684-1.927 1.948-8.364-1.137-9.941-1.543-.789-4.964-1.159-7.383-.798m17.951-.003c-3.068.534-4.826 2.447-5.267 5.73-.356 2.644-.121 15.023.305 16.156 1.004 2.667 2.529 3.778 5.781 4.213 3.713.497 6.858-.911 8.07-3.611 1.036-2.308 1.066-16.467.04-18.788-1.258-2.844-4.982-4.388-8.929-3.7m17.112.002c-2.953.526-4.801 2.368-5.251 5.238-.225 1.432-.229 14.399-.005 15.599.576 3.088 2.551 4.831 5.946 5.248 4.045.498 7.131-.941 8.305-3.871.523-1.305.714-15.621.234-17.523-.873-3.459-4.835-5.473-9.229-4.691m17.097-.002c-2.611.455-4.507 2.149-5.104 4.562-.39 1.573-.33 15.861.072 17.127.596 1.881 2.198 3.577 3.816 4.042 4.482 1.288 8.647-.062 10.136-3.284l.478-1.035v-16.765l-.44-.939c-1.35-2.879-5.014-4.395-8.958-3.708m-130.229 2.953v2.625h3.726v20.153h6.774v-20.153h3.895V218.29h-14.395v2.624m15.749 10.077v12.701h11.516v-5.25h-4.742V233.023H156.986v-4.911H152.921v-4.573H157.324V218.29h-11.177v12.701m13.498-.13c-.913 6.917-1.656 12.634-1.651 12.704.004.07 1.559.127 3.456.127h3.448l.114-1.482c.063-.815.16-1.844.215-2.286l.1-.805h2.128l.106 1.482c.059.815.149 1.844.201 2.286l.094.805h3.371c3.303 0 3.371-.007 3.371-.353 0-.194-.232-1.89-.515-3.768-.284-1.878-1.108-7.416-1.832-12.306l-1.316-8.891-4.816-.044-4.815-.045-1.659 12.576m15.969.13v12.701h5.927l.019-7.579c.01-4.168.075-7.273.144-6.9.07.372.574 3.782 1.121 7.578l.995 6.901h4.252l1.011-7.579 1.01-7.578.044 7.578.044 7.579h5.924V218.29h-8.734l-.656 5.207c-.361 2.864-.704 5.263-.762 5.332-.058.068-.433-2.217-.834-5.079-.401-2.861-.765-5.261-.809-5.331-.043-.071-2.018-.129-4.388-.129h-4.308v12.701m53.514-8.806c.33.329.339.564.339 8.806 0 8.241-.009 8.476-.339 8.806-.399.398-.825.431-1.28.098-.338-.247-.623-14.814-.329-16.819.173-1.182.91-1.59 1.609-.891m17.029-.099c.514.376.514 17.433 0 17.809-.417.305-.788.305-1.205 0-.514-.376-.514-17.433 0-17.809.417-.305.788-.305 1.205 0m17.179.099c.33.329.339.564.339 8.806 0 8.241-.009 8.476-.339 8.806-.399.398-.824.431-1.28.098-.338-.247-.623-14.814-.329-16.819.173-1.182.91-1.59 1.609-.891m-96.129 11.812l.088.55h-1.006c-1.217 0-1.164.406-.585-4.49.646-5.45.61-5.424 1.036-.76.209 2.282.419 4.397.467 4.7m-29.019 14.33c-5.808 1.269-6.735 9.086-1.375 11.599 2.215 1.039 5.575.497 7.559-1.218l.67-.579-1.156-1.291c-1.243-1.389-1.308-1.43-1.645-1.025-1.593 1.92-4.73.938-4.73-1.481 0-2.512 2.377-3.507 4.31-1.805.671.59.827.661 1.015.461.121-.13.657-.757 1.191-1.394l.969-1.159-.453-.472c-1.372-1.433-4.087-2.132-6.355-1.636m13.168.032c-3.326.806-5.276 3.699-4.705 6.981 1.353 7.77 13.736 6.369 13.174-1.491-.285-3.987-4.199-6.525-8.469-5.49m76.72.052c-4.524 1.18-6.118 6.755-2.912 10.183 2.233 2.387 6.252 2.525 9.181.314 1.058-.798 1.084-.633-.342-2.166l-1.136-1.223-.566.432c-2.202 1.679-4.525.833-4.527-1.649-.002-2.659 2.479-3.528 4.527-1.585.301.286.577.487.613.447.036-.041.58-.682 1.208-1.425l1.142-1.351-.644-.556c-1.748-1.512-4.176-2.039-6.544-1.421m-65.502 5.86v6.017h3.548l.047-2.921.046-2.922.536 1.44c.295.792.706 1.88.915 2.419l.379.981 1.368-.049 1.369-.049.849-2.286.85-2.286.046 2.836.047 2.837h3.717v-12.024H171.934l-1.024 2.413c-.563 1.328-1.138 2.68-1.277 3.006l-.252.593-.283-.677c-.155-.373-.719-1.707-1.252-2.964l-.969-2.286-2.152-.048-2.151-.047v6.017m16.935.005v6.012h3.548l.047-3.003.046-3.003.931 2.494.932 2.494 1.383.001 1.384.001.268-.805c.147-.442.57-1.566.94-2.497l.673-1.694.004 3.006.005 3.006h3.556v-12.024l-2.159.001-2.159.002-1.172 2.835c-.645 1.559-1.225 2.897-1.288 2.972-.064.075-.672-1.202-1.352-2.837l-1.235-2.973h-4.352v6.012m16.935 0v6.012H206.943v-3.048h-6.266v-1.355h5.589v-3.218h-5.589v-1.185H206.774v-3.218h-10.33v6.012m13.548 0v6.012h4.064v-3.048h1.382l.696 1.524.696 1.524h2.349c1.829 0 2.322-.047 2.23-.212-.065-.116-.572-.955-1.127-1.864l-1.009-1.653.547-.622c1.697-1.934 1.623-4.993-.159-6.519-1.139-.974-2.098-1.154-6.167-1.154h-3.502v6.012m27.603 0v6.012H241.66v-12.024H237.595v6.012m11.065-5.377c-.145.35-1.216 2.883-2.379 5.631-1.164 2.748-2.183 5.17-2.266 5.382l-.149.386 2.141-.047 2.142-.048.262-.72.262-.719h4.458l.214.762.213.762H258.069l-.243-.582c-.134-.32-1.122-2.74-2.196-5.377-1.074-2.637-2.077-5.08-2.229-5.43l-.277-.635h-4.2l-.264.635m11.628 5.377v6.012h9.145v-3.387H264.352v-8.637h-4.064v6.012m-43.523-2.456c1.021 1.021.203 2.202-1.524 2.202h-1.185v-2.54h1.185c.96 0 1.25.064 1.524.338m-62.125.272c2.209 1.965.148 6.04-2.39 4.728-1.918-.992-1.869-4.152.079-5.016.542-.24 1.909-.07 2.311.288m96.826 2.024c.288.796.524 1.482.524 1.524 0 .041-.493.075-1.094.075h-1.094l.54-1.524c.647-1.824.495-1.813 1.124-.075"/><path fill="#bba460" d="M190.686 199.931c-20.536.924-34.742 3.036-49.153 7.306-3.167.939-3.423 1.169-.678.611 12.259-2.493 25.61-4.085 41.956-5.004 5.259-.296 26.995-.296 32.6 0 15.793.833 29.614 2.357 42.658 4.705 3.417.615 4.383.675 2.642.165-14.101-4.135-28.684-6.434-47.925-7.555-2.958-.172-19.539-.343-22.1-.228"/></g></svg>